<?xml version="1.0" standalone="no"?>
<!DOCTYPE svg PUBLIC "-//W3C//DTD SVG 20010904//EN"
 "http://www.w3.org/TR/2001/REC-SVG-20010904/DTD/svg10.dtd">
<svg version="1.0" xmlns="http://www.w3.org/2000/svg"
 width="32.000000pt" height="32.000000pt" viewBox="0 0 32.000000 32.000000"
 preserveAspectRatio="xMidYMid meet">

<g transform="translate(0.000000,32.000000) scale(0.100000,-0.100000)"
fill="#000000" stroke="none">
<path d="M203 278 c-51 -24 -63 -34 -63 -53 0 -18 -7 -25 -31 -30 -18 -4 -33
-15 -36 -25 -3 -11 -18 -23 -34 -29 -26 -9 -29 -14 -29 -55 0 -24 -3 -51 -6
-60 -4 -11 -1 -16 10 -16 13 0 16 11 16 54 0 61 0 61 53 71 l37 7 0 -66 c0
-60 2 -66 21 -66 19 0 20 5 17 65 -2 47 0 65 10 65 8 0 12 -20 12 -65 l0 -65
68 0 67 0 -3 132 c-3 104 -7 137 -19 151 -20 21 -15 22 -90 -15z m47 -123 c0
-77 -4 -125 -10 -125 -6 0 -10 37 -10 90 0 87 -1 90 -24 96 -14 3 -30 3 -35
-1 -6 -3 -11 0 -11 7 0 11 62 51 88 57 1 1 2 -55 2 -124z m-76 26 c-10 -9 -92
-26 -83 -17 9 9 83 34 88 30 3 -3 0 -8 -5 -13z"/>
</g>
</svg>
